<?xml version="1.0" encoding="UTF-8" standalone="no" ?>
<!DOCTYPE svg PUBLIC "-//W3C//DTD SVG 1.1//EN" "http://www.w3.org/Graphics/SVG/1.1/DTD/svg11.dtd">
<svg xmlns="http://www.w3.org/2000/svg" xmlns:xlink="http://www.w3.org/1999/xlink" version="1.1" width="500" height="500" viewBox="0 0 500 500" xml:space="preserve">
<desc>Created with Fabric.js 3.6.3</desc>
<defs>
</defs>
<g transform="matrix(0 -0.8461095585946362 -1.3544337561974513 0 202.26796313671787 249.99253234182638)"  >
<path style="stroke: none; stroke-width: 1; stroke-dasharray: none; stroke-linecap: butt; stroke-dashoffset: 0; stroke-linejoin: miter; stroke-miterlimit: 4; fill: rgb(255,255,255); fill-rule: nonzero; opacity: 1;"  transform=" translate(-49.95, -50)" d="M 91.7 49 H 8.3 c -0.6 0 -1 0.4 -1 1 s 0.4 1 1 1 h 83.3 c 0.6 0 1 -0.4 1 -1 S 92.2 49 91.7 49 z" stroke-linecap="round" />
</g>
<g transform="matrix(0.951102266180425 -2.3295e-16 2.3295e-16 0.951102266180425 137.61452485959856 249.12315461270475)"  >
<path style="stroke: none; stroke-width: 0; stroke-dasharray: none; stroke-linecap: butt; stroke-dashoffset: 0; stroke-linejoin: miter; stroke-miterlimit: 4; fill: rgb(255,255,255); fill-rule: nonzero; opacity: 1;"  transform=" translate(-49.99816557762638, -50.00148639392647)" d="m 73.344 39.531 c -2 -11.125 -11.75 -19.469 -23.344 -19.469 c -0.30078 0 -0.59766 0.003906 -0.89844 0.011719 c -4.6328 0.14844 -9.1562 1.6602 -12.906 4.3945 c -3.5391 2.5781 -6.3164 6.1445 -8.0195 10.168 c -1.7109 4.0391 -2.3359 8.5273 -1.6953 12.871 c 0.49609 3.3594 2.5469 6.5977 4.9102 9.4297 c 1.3633 1.6328 0.46484 4.1367 -1.6172 4.5859 c -1.082 0.23437 -2.2383 -0.15234 -2.8906 -1.0508 c -4.2383 -5.8398 -6.0898 -13.215 -5.0742 -20.379 c -8.8984 1.8945 -15.723 10.559 -15.562 19.656 c 0 11.156 9.0625 20.188 20.188 20.188 h 47.125 c 10.848 0.22656 20.422 -9.3164 20.188 -20.188 c 0.007812 -11.203 -9.207 -20.344 -20.406 -20.219 z" stroke-linecap="round" />
</g>
<g transform="matrix(1 0 0 1 364.72117469235525 251.19851999999995)" style=""  ><path fill="#ffffff" opacity="1" d="M-130.00-33.22C-138.29-33.22-142.83-28.68-142.83-21.64C-142.83-14.59-138.29-10.06-130.00-10.06C-122.49-10.06-118.42-14.12-118.42-17.88C-118.42-18.66-118.89-19.13-119.67-19.13L-123.58-19.13C-124.52-19.13-125.02-18.66-125.46-17.88C-126.24-16.47-127.50-15.22-130.00-15.22C-133.44-15.22-135.63-17.41-135.63-21.64C-135.63-25.86-133.44-28.05-130.00-28.05C-127.65-28.05-126.56-26.96-125.77-25.71C-125.30-24.92-124.84-24.45-123.90-24.45L-119.98-24.45C-119.20-24.45-118.73-24.92-118.73-25.71C-118.73-29.30-122.64-33.22-130.00-33.22Z"/><path fill="#ffffff" opacity="1" d="M-95.26-14.91C-95.26-15.53-95.73-16.00-96.35-16.00L-108.09-16.00L-108.09-31.50C-108.09-32.12-108.56-32.59-109.19-32.59L-113.88-32.59C-114.51-32.59-114.98-32.12-114.98-31.50L-114.98-11.78C-114.98-11.15-114.51-10.68-113.88-10.68L-96.35-10.68C-95.73-10.68-95.26-11.15-95.26-11.78Z"/><path fill="#ffffff" opacity="1" d="M-81.17-15.22C-84.61-15.22-86.81-17.41-86.81-21.64C-86.81-25.86-84.61-28.05-81.17-28.05C-77.73-28.05-75.54-25.86-75.54-21.64C-75.54-17.41-77.73-15.22-81.17-15.22ZM-81.17-33.22C-89.47-33.22-94.00-28.68-94.00-21.64C-94.00-14.59-89.47-10.06-81.17-10.06C-72.88-10.06-68.34-14.59-68.34-21.64C-68.34-28.68-72.88-33.22-81.17-33.22Z"/><path fill="#ffffff" opacity="1" d="M-53.16-10.06C-45.49-10.06-41.58-13.81-41.58-19.79L-41.58-31.50C-41.58-32.12-42.05-32.59-42.67-32.59L-47.37-32.59C-47.99-32.59-48.46-32.12-48.46-31.50L-48.46-19.76C-48.46-16.94-50.18-15.22-53.16-15.22C-56.13-15.22-57.85-16.94-57.85-19.76L-57.85-31.50C-57.85-32.12-58.32-32.59-58.95-32.59L-63.64-32.59C-64.27-32.59-64.74-32.12-64.74-31.50L-64.74-19.76C-64.74-13.81-60.98-10.06-53.16-10.06Z"/><path fill="#ffffff" opacity="1" d="M-35.94-10.68L-26.08-10.68C-17.63-10.68-13.25-15.06-13.25-21.64C-13.25-28.21-17.63-32.59-26.08-32.59L-35.94-32.59C-36.57-32.59-37.04-32.12-37.04-31.50L-37.04-11.78C-37.04-11.15-36.57-10.68-35.94-10.68ZM-30.15-15.69L-30.15-27.58L-26.08-27.58C-22.48-27.58-20.45-25.55-20.45-21.64C-20.45-17.72-22.48-15.69-26.08-15.69Z"/><path fill="#ffffff" opacity="1" d="M-119.04 9.53C-119.04 8.91-119.51 8.44-120.14 8.44L-124.84 8.44C-125.46 8.44-125.93 8.91-125.93 9.53L-125.93 16.89L-135.01 16.89L-135.01 9.53C-135.01 8.91-135.48 8.44-136.10 8.44L-140.80 8.44C-141.42 8.44-141.89 8.91-141.89 9.53L-141.89 29.25C-141.89 29.88-141.42 30.35-140.80 30.35L-136.10 30.35C-135.48 30.35-135.01 29.88-135.01 29.25L-135.01 22.21L-125.93 22.21L-125.93 29.25C-125.93 29.88-125.46 30.35-124.84 30.35L-120.14 30.35C-119.51 30.35-119.04 29.88-119.04 29.25Z"/><path fill="#ffffff" opacity="1" d="M-102.46 25.81C-105.90 25.81-108.09 23.62-108.09 19.39C-108.09 15.17-105.90 12.98-102.46 12.98C-99.01 12.98-96.82 15.17-96.82 19.39C-96.82 23.62-99.01 25.81-102.46 25.81ZM-102.46 7.81C-110.75 7.81-115.29 12.35-115.29 19.39C-115.29 26.43-110.75 30.97-102.46 30.97C-94.16 30.97-89.62 26.43-89.62 19.39C-89.62 12.35-94.16 7.81-102.46 7.81Z"/><path fill="#ffffff" opacity="1" d="M-74.44 30.97C-66.77 30.97-62.86 27.22-62.86 21.24L-62.86 9.53C-62.86 8.91-63.33 8.44-63.96 8.44L-68.65 8.44C-69.28 8.44-69.75 8.91-69.75 9.53L-69.75 21.27C-69.75 24.09-71.47 25.81-74.44 25.81C-77.42 25.81-79.14 24.09-79.14 21.27L-79.14 9.53C-79.14 8.91-79.61 8.44-80.23 8.44L-84.93 8.44C-85.55 8.44-86.02 8.91-86.02 9.53L-86.02 21.27C-86.02 27.22-82.27 30.97-74.44 30.97Z"/><path fill="#ffffff" opacity="1" d="M-51.91 14.85C-51.91 13.91-50.97 12.98-48.15 12.98C-45.80 12.98-44.83 13.91-44.55 14.38C-44.11 15.17-43.61 15.64-42.67 15.64L-38.76 15.64C-37.98 15.64-37.51 15.17-37.51 14.38C-37.51 11.25-40.95 7.81-48.15 7.81C-55.82 7.81-59.11 11.10-59.11 14.85C-59.11 23.62-43.92 20.64-43.92 23.77C-43.92 24.71-45.02 25.81-48.15 25.81C-51.28 25.81-52.22 24.87-52.69 24.09C-53.13 23.34-53.63 22.83-54.57 22.83L-58.48 22.83C-59.26 22.83-59.73 23.30-59.73 24.09C-59.73 27.53-56.29 30.97-48.15 30.97C-40.17 30.97-36.73 27.53-36.73 23.77C-36.73 15.01-51.91 17.98-51.91 14.85Z"/><path fill="#ffffff" opacity="1" d="M-12.16 9.53C-12.16 8.91-12.62 8.44-13.25 8.44L-32.34 8.44C-32.97 8.44-33.44 8.91-33.44 9.53L-33.44 29.25C-33.44 29.88-32.97 30.35-32.34 30.35L-13.25 30.35C-12.62 30.35-12.16 29.88-12.16 29.25L-12.16 26.12C-12.16 25.50-12.62 25.03-13.25 25.03L-26.55 25.03L-26.55 21.90L-16.69 21.90C-16.07 21.90-15.60 21.43-15.60 20.80L-15.60 17.67C-15.60 17.04-16.07 16.57-16.69 16.57L-26.55 16.57L-26.55 13.76L-13.25 13.76C-12.62 13.76-12.16 13.29-12.16 12.66Z"/><path fill="#ffffff" opacity="1" d=""/><path fill="#ffffff" opacity="1" d="M14.76 9.53C14.76 8.91 14.29 8.44 13.67 8.44L0.83 8.44C0.21 8.44-0.26 8.91-0.26 9.53L-0.26 12.66C-0.26 13.29 0.21 13.76 0.83 13.76L3.81 13.76L3.81 25.03L0.83 25.03C0.21 25.03-0.26 25.50-0.26 26.12L-0.26 29.25C-0.26 29.88 0.21 30.35 0.83 30.35L13.67 30.35C14.29 30.35 14.76 29.88 14.76 29.25L14.76 26.12C14.76 25.50 14.29 25.03 13.67 25.03L10.69 25.03L10.69 13.76L13.67 13.76C14.29 13.76 14.76 13.29 14.76 12.66Z"/><path fill="#ffffff" opacity="1" d="M38.55 9.53C38.55 8.91 38.08 8.44 37.46 8.44L17.42 8.44C16.80 8.44 16.33 8.91 16.33 9.53L16.33 12.66C16.33 13.29 16.80 13.76 17.42 13.76L24.00 13.76L24.00 29.25C24.00 29.88 24.47 30.35 25.09 30.35L29.79 30.35C30.41 30.35 30.88 29.88 30.88 29.25L30.88 13.76L37.46 13.76C38.08 13.76 38.55 13.29 38.55 12.66Z"/></g></svg>